<svg width="48" height="48" viewBox="0 0 48 48" fill="none" xmlns="http://www.w3.org/2000/svg">
<path fill-rule="evenodd" clip-rule="evenodd" d="M46.1358 27.8878C45.9509 31.1941 43.1914 33.7659 39.8807 33.7201H24.8452C24.1565 33.7129 23.6007 33.1544 23.5971 32.4665V16.2772C23.5755 15.7088 23.9051 15.1853 24.4277 14.959C24.4277 14.959 25.8105 14 28.7235 14C30.5033 13.9982 32.2498 14.4777 33.779 15.3891C36.1909 16.8079 37.898 19.1731 38.4861 21.9083C39.0051 21.762 39.5421 21.6892 40.0809 21.691C41.7152 21.6811 43.2821 22.3349 44.4243 23.504C45.5665 24.6722 46.1843 26.2545 46.1367 27.8878H46.1358ZM21.7203 17.3009C22.1738 22.7919 22.5033 27.7998 21.7203 33.2729C21.6934 33.5198 21.4842 33.7075 21.2354 33.7075C20.9858 33.7075 20.7775 33.5198 20.7496 33.2729C20.0196 27.8465 20.3375 22.7443 20.7496 17.3009C20.729 17.115 20.817 16.9327 20.9759 16.834C21.134 16.7352 21.3351 16.7352 21.4949 16.834C21.653 16.9327 21.741 17.115 21.7203 17.3009ZM18.678 33.2783C18.6403 33.5288 18.4248 33.7129 18.1725 33.7129C17.9193 33.7129 17.7038 33.5288 17.666 33.2783C17.1219 28.5963 17.1219 23.8668 17.666 19.1848C17.6939 18.9244 17.9139 18.7269 18.1752 18.7269C18.4365 18.7269 18.6556 18.9244 18.6843 19.1848C19.2887 23.8632 19.286 28.5999 18.678 33.2783V33.2783ZM15.6295 18.708C16.1234 23.7393 16.3478 28.247 15.6241 33.2666C15.6241 33.536 15.405 33.7551 15.1356 33.7551C14.8662 33.7551 14.6471 33.536 14.6471 33.2666C13.9467 28.3117 14.182 23.6746 14.6471 18.708C14.674 18.4566 14.886 18.268 15.1383 18.268C15.3906 18.268 15.6025 18.4566 15.6295 18.708ZM12.5764 33.2846C12.5477 33.5378 12.334 33.73 12.078 33.73C11.823 33.73 11.6084 33.5378 11.5815 33.2846C11.0193 28.916 11.0193 24.4936 11.5815 20.1259C11.5815 19.8466 11.8078 19.6203 12.087 19.6203C12.3663 19.6203 12.5935 19.8466 12.5935 20.1259C13.1906 24.4918 13.1843 28.9196 12.5755 33.2846H12.5764ZM9.52694 23.416C10.2983 26.8282 9.95078 29.8418 9.4982 33.3196C9.46139 33.5513 9.26114 33.7219 9.02678 33.7219C8.79331 33.7219 8.59307 33.5513 8.55625 33.3196C8.14409 29.8894 7.80286 26.8049 8.52661 23.4151C8.52661 23.1394 8.7511 22.9149 9.02678 22.9149C9.30335 22.9149 9.52694 23.1394 9.52694 23.416V23.416ZM6.48465 22.8979C7.19135 26.3936 6.96147 29.3533 6.4667 32.8607C6.40833 33.3789 5.52024 33.3842 5.47265 32.8607C5.02547 29.4063 4.81355 26.3577 5.4547 22.8979C5.48343 22.6348 5.70612 22.4354 5.97012 22.4354C6.23502 22.4354 6.45681 22.6348 6.48465 22.8979ZM3.41363 24.5923C4.15445 26.9109 3.90123 28.7948 3.384 31.1717C3.35706 31.4159 3.15053 31.6009 2.90449 31.6009C2.65845 31.6009 2.45192 31.4159 2.42408 31.1717C1.9769 28.8415 1.79551 26.9171 2.38368 24.5923C2.41062 24.3292 2.63331 24.1299 2.89821 24.1299C3.1631 24.1299 3.3849 24.3292 3.41274 24.5923H3.41363Z" fill="#3B82F6"/>
</svg>
